<svg width="19" height="16" viewBox="0 0 19 16" fill="none" xmlns="http://www.w3.org/2000/svg">
<path d="M2.98179 7.53199H17.289C17.4931 7.53199 17.6889 7.61256 17.8333 7.75598C17.9776 7.89939 18.0587 8.09391 18.0587 8.29673C18.0587 8.49955 17.9776 8.69406 17.8333 8.83748C17.6889 8.9809 17.4931 9.06147 17.289 9.06147H2.98179L8.59658 14.6379C8.74113 14.7815 8.82233 14.9763 8.82233 15.1794C8.82233 15.3825 8.74113 15.5772 8.59658 15.7208C8.45204 15.8644 8.25599 15.9451 8.05158 15.9451C7.84716 15.9451 7.65112 15.8644 7.50657 15.7208L0.578531 8.83816C0.506844 8.76713 0.449968 8.68274 0.411161 8.58983C0.372355 8.49692 0.352379 8.39732 0.352379 8.29673C0.352379 8.19614 0.372355 8.09654 0.411161 8.00363C0.449968 7.91072 0.506844 7.82633 0.578531 7.75529L7.50657 0.872646C7.65112 0.729049 7.84716 0.648376 8.05158 0.648376C8.25599 0.648376 8.45204 0.729049 8.59658 0.872646C8.74113 1.01624 8.82233 1.211 8.82233 1.41408C8.82233 1.61716 8.74113 1.81192 8.59658 1.95552L2.98179 7.53199Z" fill="#333333"/>
</svg>
